<svg xmlns="http://www.w3.org/2000/svg" viewBox="0 0 850 240" width="100%">
  <defs>
    <!-- Background Gradient -->
    <linearGradient id="bgGrad" x1="0%" y1="0%" x2="100%" y2="100%">
      <stop offset="0%" style="stop-color:#0b0f19;stop-opacity:1" />
      <stop offset="40%" style="stop-color:#111827;stop-opacity:1" />
      <stop offset="100%" style="stop-color:#1e1b4b;stop-opacity:1" />
    </linearGradient>
    <!-- Text Highlight Gradient -->
    <linearGradient id="textGrad" x1="0%" y1="0%" x2="100%" y2="0%">
      <stop offset="0%" style="stop-color:#6366f1;stop-opacity:1" />
      <stop offset="50%" style="stop-color:#a855f7;stop-opacity:1" />
      <stop offset="100%" style="stop-color:#ec4899;stop-opacity:1" />
    </linearGradient>
    <filter id="glow" x="-10%" y="-10%" width="120%" height="120%">
      <feGaussianBlur stdDeviation="6" result="blur" />
      <feComposite in="SourceGraphic" in2="blur" operator="over" />
    </filter>
  </defs>
  <!-- Background Card -->
  <rect width="100%" height="100%" fill="url(#bgGrad)" rx="12" />
  
  <!-- Decorative Glowing Waves -->
  <path d="M 0 170 C 200 130, 350 240, 550 160 C 720 100, 780 200, 850 130 L 850 240 L 0 240 Z" fill="#4f46e5" opacity="0.15" />
  <path d="M 0 195 C 180 160, 280 220, 480 180 C 680 140, 720 190, 850 155 L 850 240 L 0 240 Z" fill="#8b5cf6" opacity="0.12" />
  
  <!-- Code Icon Symbol Graphic -->
  <g transform="translate(680, 60)" stroke="url(#textGrad)" stroke-width="3" fill="none" opacity="0.3">
    <path d="M 20 20 L 5 40 L 20 60" />
    <path d="M 30 15 L 20 65" />
    <path d="M 40 20 L 55 40 L 40 60" />
  </g>

  <!-- Typography Content -->
  <g transform="translate(50, 85)">
    <!-- Title Name -->
    <text x="0" y="0" font-family="-apple-system, BlinkMacSystemFont, 'Segoe UI', Roboto, sans-serif" font-size="48" font-weight="900" fill="url(#textGrad)" filter="url(#glow)" letter-spacing="2">Manu</text>
    <!-- Tagline Roles -->
    <text x="0" y="38" font-family="-apple-system, BlinkMacSystemFont, 'Segoe UI', Roboto, sans-serif" font-size="18" font-weight="600" fill="#e2e8f0" letter-spacing="1">Discord Bot Developer &amp; Systems Builder</text>
    <!-- Secondary Tags / Details -->
    <text x="0" y="65" font-family="-apple-system, BlinkMacSystemFont, 'Segoe UI', Roboto, sans-serif" font-size="13" font-weight="500" fill="#94a3b8" letter-spacing="1.5">🚀 SA-MP PAWN DEVELOPER • SECURITY &amp; DDOS ALERTS</text>
    <!-- Location badge -->
    <text x="0" y="90" font-family="-apple-system, BlinkMacSystemFont, 'Segoe UI', Roboto, sans-serif" font-size="11" font-weight="bold" fill="#6366f1" letter-spacing="2">📍 KERALA, INDIA</text>
  </g>
</svg>
